<svg width="390" height="115" viewBox="0 0 390 115" fill="none" xmlns="http://www.w3.org/2000/svg">
<g filter="url(#filter0_b_2_1483)">
<path d="M0 27C0 27 76.0769 42.9822 127 47C153.339 49.0782 168.554 50 195 50C221.446 50 235.661 49.0782 262 47C312.923 42.9822 390 27 390 27V115H0V27Z" fill="url(#paint0_linear_2_1483)" fill-opacity="0.26"/>
<path d="M0 27L0.0513978 26.7553L-0.25 26.692V27V115V115.25H0H390H390.25V115V27V26.6928L389.949 26.7552L390 27C389.949 26.7552 389.949 26.7553 389.948 26.7554L389.946 26.7559L389.935 26.7581L389.893 26.7668L389.727 26.8011C389.58 26.8315 389.36 26.8765 389.072 26.9355C388.495 27.0535 387.643 27.2271 386.539 27.4495C384.333 27.8943 381.124 28.5342 377.113 29.3146C369.093 30.8755 357.868 32.9985 345.053 35.2471C319.42 39.7446 287.43 44.7428 261.98 46.7508C235.644 48.8287 221.437 49.75 195 49.75C168.563 49.75 153.355 48.8286 127.02 46.7508C101.571 44.7428 69.8304 39.7446 44.4475 35.2471C31.757 32.9986 20.6577 30.8756 12.731 29.3147C8.76767 28.5343 5.59756 27.8944 3.41838 27.4496C2.32879 27.2273 1.48694 27.0537 0.917538 26.9357C0.632837 26.8767 0.416248 26.8316 0.270862 26.8012L0.10657 26.7669L0.0651988 26.7582L0.054834 26.7561L0.0522476 26.7555C0.0516779 26.7554 0.0513978 26.7553 0 27Z" stroke="#7582F4" stroke-opacity="0.5" stroke-width="0.5"/>
</g>
<g filter="url(#filter1_d_2_1483)">
<path d="M174 15H216C248 15 257.501 39.1398 267.733 63.6985C278.325 89.1247 289 115 324 115H66.0003C101 115 111.676 89.1247 122.268 63.6985C132.499 39.1398 142 15 174 15Z" fill="url(#paint1_linear_2_1483)"/>
<path d="M174 15.25H216C231.923 15.25 242.23 21.2497 249.838 30.3006C257.21 39.0697 262.053 50.7041 266.994 62.575C267.163 62.9813 267.332 63.3879 267.502 63.7947L267.605 64.0418C272.863 76.6652 278.18 89.4274 286.525 99.0479C293.573 107.173 302.777 113.054 315.909 114.75H74.0917C87.2238 113.054 96.428 107.173 103.476 99.0479C111.821 89.4273 117.137 76.6651 122.396 64.0417L122.499 63.7947C122.668 63.3879 122.838 62.9813 123.007 62.5751C127.948 50.7041 132.79 39.0697 140.162 30.3006C147.771 21.2497 158.077 15.25 174 15.25Z" stroke="#7582F4" stroke-opacity="0.5" stroke-width="0.5"/>
</g>
<g filter="url(#filter2_f_2_1483)">
<circle cx="195" cy="59" r="32" fill="url(#paint2_linear_2_1483)" fill-opacity="0.4"/>
</g>
<g filter="url(#filter3_ddi_2_1483)">
<circle cx="195" cy="59" r="29" fill="url(#paint3_linear_2_1483)"/>
<circle cx="195" cy="59" r="28.9" stroke="url(#paint4_linear_2_1483)" stroke-width="0.2"/>
</g>
<mask id="mask0_2_1483" style="mask-type:alpha" maskUnits="userSpaceOnUse" x="166" y="30" width="59" height="58">
<circle cx="195" cy="59" r="29" fill="url(#paint5_linear_2_1483)"/>
</mask>
<g mask="url(#mask0_2_1483)">
<g filter="url(#filter4_f_2_1483)">
<path d="M224 59C224 75.0163 211.017 88 195 88C178.984 88 166 75.0163 166 59C166 42.9837 178.984 30 195 30C211.017 30 224 42.9837 224 59ZM168.9 59C168.9 73.4146 180.586 85.1 195 85.1C209.415 85.1 221.1 73.4146 221.1 59C221.1 44.5854 209.415 32.9 195 32.9C180.586 32.9 168.9 44.5854 168.9 59Z" fill="url(#paint6_linear_2_1483)"/>
</g>
</g>
<defs>
<filter id="filter0_b_2_1483" x="-50.5" y="-23.616" width="491" height="189.116" filterUnits="userSpaceOnUse" color-interpolation-filters="sRGB">
<feFlood flood-opacity="0" result="BackgroundImageFix"/>
<feGaussianBlur in="BackgroundImageFix" stdDeviation="25"/>
<feComposite in2="SourceAlpha" operator="in" result="effect1_backgroundBlur_2_1483"/>
<feBlend mode="normal" in="SourceGraphic" in2="effect1_backgroundBlur_2_1483" result="shape"/>
</filter>
<filter id="filter1_d_2_1483" x="62.0003" y="15" width="266" height="108" filterUnits="userSpaceOnUse" color-interpolation-filters="sRGB">
<feFlood flood-opacity="0" result="BackgroundImageFix"/>
<feColorMatrix in="SourceAlpha" type="matrix" values="0 0 0 0 0 0 0 0 0 0 0 0 0 0 0 0 0 0 127 0" result="hardAlpha"/>
<feOffset dy="4"/>
<feGaussianBlur stdDeviation="2"/>
<feComposite in2="hardAlpha" operator="out"/>
<feColorMatrix type="matrix" values="0 0 0 0 0.458824 0 0 0 0 0.509804 0 0 0 0 0.956863 0 0 0 1 0"/>
<feBlend mode="normal" in2="BackgroundImageFix" result="effect1_dropShadow_2_1483"/>
<feBlend mode="normal" in="SourceGraphic" in2="effect1_dropShadow_2_1483" result="shape"/>
</filter>
<filter id="filter2_f_2_1483" x="162" y="26" width="66" height="66" filterUnits="userSpaceOnUse" color-interpolation-filters="sRGB">
<feFlood flood-opacity="0" result="BackgroundImageFix"/>
<feBlend mode="normal" in="SourceGraphic" in2="BackgroundImageFix" result="shape"/>
<feGaussianBlur stdDeviation="0.5" result="effect1_foregroundBlur_2_1483"/>
</filter>
<filter id="filter3_ddi_2_1483" x="136" y="0" width="118" height="118" filterUnits="userSpaceOnUse" color-interpolation-filters="sRGB">
<feFlood flood-opacity="0" result="BackgroundImageFix"/>
<feColorMatrix in="SourceAlpha" type="matrix" values="0 0 0 0 0 0 0 0 0 0 0 0 0 0 0 0 0 0 127 0" result="hardAlpha"/>
<feOffset dx="10" dy="10"/>
<feGaussianBlur stdDeviation="10"/>
<feComposite in2="hardAlpha" operator="out"/>
<feColorMatrix type="matrix" values="0 0 0 0 0.0519097 0 0 0 0 0.0787861 0 0 0 0 0.191667 0 0 0 0.5 0"/>
<feBlend mode="normal" in2="BackgroundImageFix" result="effect1_dropShadow_2_1483"/>
<feColorMatrix in="SourceAlpha" type="matrix" values="0 0 0 0 0 0 0 0 0 0 0 0 0 0 0 0 0 0 127 0" result="hardAlpha"/>
<feOffset dx="-10" dy="-10"/>
<feGaussianBlur stdDeviation="10"/>
<feComposite in2="hardAlpha" operator="out"/>
<feColorMatrix type="matrix" values="0 0 0 0 1 0 0 0 0 1 0 0 0 0 1 0 0 0 0.5 0"/>
<feBlend mode="overlay" in2="effect1_dropShadow_2_1483" result="effect2_dropShadow_2_1483"/>
<feBlend mode="normal" in="SourceGraphic" in2="effect2_dropShadow_2_1483" result="shape"/>
<feColorMatrix in="SourceAlpha" type="matrix" values="0 0 0 0 0 0 0 0 0 0 0 0 0 0 0 0 0 0 127 0" result="hardAlpha"/>
<feOffset dx="1" dy="1"/>
<feGaussianBlur stdDeviation="0.25"/>
<feComposite in2="hardAlpha" operator="arithmetic" k2="-1" k3="1"/>
<feColorMatrix type="matrix" values="0 0 0 0 1 0 0 0 0 1 0 0 0 0 1 0 0 0 1 0"/>
<feBlend mode="normal" in2="shape" result="effect3_innerShadow_2_1483"/>
</filter>
<filter id="filter4_f_2_1483" x="164" y="28" width="62" height="62" filterUnits="userSpaceOnUse" color-interpolation-filters="sRGB">
<feFlood flood-opacity="0" result="BackgroundImageFix"/>
<feBlend mode="normal" in="SourceGraphic" in2="BackgroundImageFix" result="shape"/>
<feGaussianBlur stdDeviation="1" result="effect1_foregroundBlur_2_1483"/>
</filter>
<linearGradient id="paint0_linear_2_1483" x1="271.51" y1="27" x2="271.51" y2="115" gradientUnits="userSpaceOnUse">
<stop stop-color="#3A3A6A"/>
<stop offset="1" stop-color="#25244C"/>
</linearGradient>
<linearGradient id="paint1_linear_2_1483" x1="245.615" y1="115" x2="245.615" y2="15" gradientUnits="userSpaceOnUse">
<stop stop-color="#262C51"/>
<stop offset="1" stop-color="#3E3F74"/>
</linearGradient>
<linearGradient id="paint2_linear_2_1483" x1="174.5" y1="40" x2="213.5" y2="86" gradientUnits="userSpaceOnUse">
<stop/>
<stop offset="1" stop-color="white" stop-opacity="0.76"/>
</linearGradient>
<linearGradient id="paint3_linear_2_1483" x1="180" y1="38" x2="211.5" y2="82.8333" gradientUnits="userSpaceOnUse">
<stop stop-color="#F5F5F9"/>
<stop offset="1" stop-color="#DADFE7"/>
</linearGradient>
<linearGradient id="paint4_linear_2_1483" x1="174.834" y1="39.8333" x2="209.167" y2="85.5" gradientUnits="userSpaceOnUse">
<stop stop-color="white"/>
<stop offset="1" stop-color="#AEAEAE"/>
</linearGradient>
<linearGradient id="paint5_linear_2_1483" x1="180" y1="38" x2="211.5" y2="82.8333" gradientUnits="userSpaceOnUse">
<stop stop-color="#F5F5F9"/>
<stop offset="1" stop-color="#DADFE7"/>
</linearGradient>
<linearGradient id="paint6_linear_2_1483" x1="170.791" y1="40.2008" x2="195" y2="88" gradientUnits="userSpaceOnUse">
<stop stop-color="white" stop-opacity="0"/>
<stop offset="1" stop-color="#BBBFC7"/>
</linearGradient>
</defs>
</svg>
