<svg width="390" height="325" viewBox="0 0 390 325" fill="none" xmlns="http://www.w3.org/2000/svg">
<g clip-path="url(#clip0_2_1409)">
<g filter="url(#filter0_bi_2_1409)">
<path d="M0 44C0 19.6995 19.6995 0 44 0H346C370.301 0 390 19.6995 390 44V281C390 305.301 370.301 325 346 325H44C19.6995 325 0 305.301 0 281V44Z" fill="url(#paint0_linear_2_1409)" fill-opacity="0.26"/>
</g>
<g filter="url(#filter1_f_2_1409)">
<circle cx="396" cy="190" r="125" fill="url(#paint1_angular_2_1409)"/>
</g>
<g filter="url(#filter2_f_2_1409)">
<ellipse cx="191" cy="-17" rx="143" ry="16" fill="#C427FB" fill-opacity="0.5"/>
</g>
<g filter="url(#filter3_f_2_1409)">
<path d="M334 -7.43789C334 -1.67319 269.977 2.38419e-05 191 2.38419e-05C112.023 2.38419e-05 48 -1.67319 48 -7.43789C48 -13.2026 112.023 -6.99998 191 -6.99998C269.977 -6.99998 334 -13.2026 334 -7.43789Z" fill="#E0D9FF"/>
</g>
<path d="M147.304 38H149.193V33.415H154.335V38H156.217V27.4312H154.335V31.8257H149.193V27.4312H147.304V38ZM161.599 38.1611C163.994 38.1611 165.451 36.5938 165.451 34.001V33.9863C165.451 31.4082 163.986 29.8408 161.599 29.8408C159.218 29.8408 157.746 31.4155 157.746 33.9863V34.001C157.746 36.5938 159.196 38.1611 161.599 38.1611ZM161.599 36.6816C160.332 36.6816 159.606 35.6929 159.606 34.0083V33.9937C159.606 32.3091 160.332 31.313 161.599 31.313C162.858 31.313 163.583 32.3091 163.583 33.9937V34.0083C163.583 35.6929 162.866 36.6816 161.599 36.6816ZM169.434 38.1611C170.591 38.1611 171.404 37.6411 171.777 36.7842H171.902V38H173.726V29.9946H171.902V34.6602C171.902 35.8613 171.272 36.623 170.093 36.623C168.994 36.623 168.533 35.9932 168.533 34.7554V29.9946H166.709V35.1729C166.709 37.0771 167.632 38.1611 169.434 38.1611ZM175.452 38H177.276V33.3491C177.276 32.2065 178.074 31.4814 179.29 31.4814C179.605 31.4814 179.905 31.5254 180.198 31.584V29.9507C180.022 29.8994 179.737 29.8628 179.458 29.8628C178.404 29.8628 177.671 30.3682 177.4 31.2251H177.276V29.9946H175.452V38ZM181.266 38H183.089V26.8965H181.266V38ZM185.753 40.8125C187.526 40.8125 188.441 40.1753 189.13 38.1685L192.001 29.9946H190.082L188.222 36.2495H188.083L186.215 29.9946H184.223L187.086 38.0073L186.991 38.3735C186.793 39.0986 186.347 39.4062 185.6 39.4062C185.409 39.4062 185.204 39.3989 185.058 39.3843V40.7832C185.277 40.8052 185.534 40.8125 185.753 40.8125ZM196.758 38H198.647V33.686H203.079V32.1479H198.647V29.0205H203.496V27.4312H196.758V38ZM208.357 38.1611C210.752 38.1611 212.21 36.5938 212.21 34.001V33.9863C212.21 31.4082 210.745 29.8408 208.357 29.8408C205.977 29.8408 204.505 31.4155 204.505 33.9863V34.001C204.505 36.5938 205.955 38.1611 208.357 38.1611ZM208.357 36.6816C207.09 36.6816 206.365 35.6929 206.365 34.0083V33.9937C206.365 32.3091 207.09 31.313 208.357 31.313C209.617 31.313 210.342 32.3091 210.342 33.9937V34.0083C210.342 35.6929 209.625 36.6816 208.357 36.6816ZM213.541 38H215.365V33.3491C215.365 32.2065 216.163 31.4814 217.379 31.4814C217.694 31.4814 217.994 31.5254 218.287 31.584V29.9507C218.111 29.8994 217.826 29.8628 217.547 29.8628C216.493 29.8628 215.76 30.3682 215.489 31.2251H215.365V29.9946H213.541V38ZM222.504 38.1611C224.679 38.1611 225.749 36.9087 226.005 35.876L226.027 35.8101H224.291L224.269 35.8613C224.093 36.2275 223.529 36.7256 222.541 36.7256C221.303 36.7256 220.526 35.8906 220.504 34.4551H226.1V33.8545C226.1 31.4375 224.694 29.8408 222.416 29.8408C220.138 29.8408 218.681 31.4888 218.681 34.0083V34.0156C218.681 36.5645 220.124 38.1611 222.504 38.1611ZM222.438 31.269C223.456 31.269 224.196 31.9209 224.32 33.2319H220.519C220.658 31.9575 221.42 31.269 222.438 31.269ZM230.859 38.1611C232.888 38.1611 234.067 37.0698 234.331 35.4292L234.345 35.3706L232.624 35.3779L232.609 35.4072C232.382 36.2495 231.804 36.6816 230.859 36.6816C229.621 36.6816 228.881 35.6855 228.881 33.9863V33.9717C228.881 32.2944 229.614 31.313 230.859 31.313C231.855 31.313 232.448 31.8696 232.617 32.646L232.624 32.668H234.345V32.6387C234.14 30.9834 232.91 29.8408 230.852 29.8408C228.442 29.8408 227.028 31.3862 227.028 33.9717V33.9863C227.028 36.6011 228.449 38.1611 230.859 38.1611ZM237.764 38.1318C238.818 38.1318 239.668 37.6777 240.107 36.9014H240.232V38H242.034V32.5288C242.034 30.8369 240.876 29.8408 238.818 29.8408C236.914 29.8408 235.625 30.7344 235.449 32.082L235.442 32.1479H237.163L237.17 32.1187C237.354 31.5913 237.896 31.291 238.73 31.291C239.712 31.291 240.232 31.7305 240.232 32.5288V33.2173L238.174 33.3418C236.226 33.459 235.134 34.2939 235.134 35.7222V35.7368C235.134 37.1943 236.24 38.1318 237.764 38.1318ZM236.936 35.6489V35.6343C236.936 34.9751 237.412 34.6016 238.43 34.5356L240.232 34.4185V35.063C240.232 36.0151 239.419 36.7329 238.32 36.7329C237.515 36.7329 236.936 36.3301 236.936 35.6489ZM246.749 38.1611C248.719 38.1611 250.147 37.1431 250.147 35.6196V35.605C250.147 34.4404 249.407 33.7739 247.84 33.4224L246.543 33.1367C245.679 32.939 245.342 32.6533 245.342 32.1846V32.1772C245.342 31.5767 245.928 31.1812 246.741 31.1812C247.598 31.1812 248.125 31.5913 248.257 32.0967L248.265 32.1187H249.979V32.104C249.861 30.8076 248.697 29.8408 246.749 29.8408C244.859 29.8408 243.541 30.8369 243.541 32.2798V32.2871C243.541 33.4663 244.266 34.1841 245.789 34.521L247.085 34.814C247.964 35.0117 248.316 35.3193 248.316 35.7881V35.8027C248.316 36.4033 247.686 36.8135 246.778 36.8135C245.87 36.8135 245.335 36.4253 245.145 35.8687L245.137 35.854H243.328V35.8687C243.482 37.2236 244.712 38.1611 246.749 38.1611ZM254.576 38.0366C254.928 38.0366 255.265 38.0073 255.528 37.9561V36.5498C255.309 36.5718 255.169 36.5791 254.913 36.5791C254.151 36.5791 253.836 36.2422 253.836 35.4438V31.4082H255.528V29.9946H253.836V28.0317H251.983V29.9946H250.738V31.4082H251.983V35.876C251.983 37.4214 252.738 38.0366 254.576 38.0366Z" fill="#EBEBF5" fill-opacity="0.6"/>
<g filter="url(#filter4_d_2_1409)">
<line y1="48.5" x2="390" y2="48.5" stroke="white" stroke-opacity="0.3" style="mix-blend-mode:overlay" shape-rendering="crispEdges"/>
</g>
<line x1="114" y1="47.5" x2="504" y2="47.5" stroke="url(#paint2_linear_2_1409)" stroke-width="3" style="mix-blend-mode:overlay"/>
<path d="M171 10.5C171 9.11929 172.119 8 173.5 8H216.5C217.881 8 219 9.11929 219 10.5C219 11.8807 217.881 13 216.5 13H173.5C172.119 13 171 11.8807 171 10.5Z" fill="black" fill-opacity="0.3"/>
</g>
<defs>
<filter id="filter0_bi_2_1409" x="-50" y="-50" width="490" height="425" filterUnits="userSpaceOnUse" color-interpolation-filters="sRGB">
<feFlood flood-opacity="0" result="BackgroundImageFix"/>
<feGaussianBlur in="BackgroundImageFix" stdDeviation="25"/>
<feComposite in2="SourceAlpha" operator="in" result="effect1_backgroundBlur_2_1409"/>
<feBlend mode="normal" in="SourceGraphic" in2="effect1_backgroundBlur_2_1409" result="shape"/>
<feColorMatrix in="SourceAlpha" type="matrix" values="0 0 0 0 0 0 0 0 0 0 0 0 0 0 0 0 0 0 127 0" result="hardAlpha"/>
<feOffset dy="1"/>
<feComposite in2="hardAlpha" operator="arithmetic" k2="-1" k3="1"/>
<feColorMatrix type="matrix" values="0 0 0 0 1 0 0 0 0 1 0 0 0 0 1 0 0 0 1 0"/>
<feBlend mode="overlay" in2="shape" result="effect2_innerShadow_2_1409"/>
</filter>
<filter id="filter1_f_2_1409" x="131" y="-75" width="530" height="530" filterUnits="userSpaceOnUse" color-interpolation-filters="sRGB">
<feFlood flood-opacity="0" result="BackgroundImageFix"/>
<feBlend mode="normal" in="SourceGraphic" in2="BackgroundImageFix" result="shape"/>
<feGaussianBlur stdDeviation="70" result="effect1_foregroundBlur_2_1409"/>
</filter>
<filter id="filter2_f_2_1409" x="-12" y="-93" width="406" height="152" filterUnits="userSpaceOnUse" color-interpolation-filters="sRGB">
<feFlood flood-opacity="0" result="BackgroundImageFix"/>
<feBlend mode="normal" in="SourceGraphic" in2="BackgroundImageFix" result="shape"/>
<feGaussianBlur stdDeviation="30" result="effect1_foregroundBlur_2_1409"/>
</filter>
<filter id="filter3_f_2_1409" x="38" y="-19.8912" width="306" height="29.8912" filterUnits="userSpaceOnUse" color-interpolation-filters="sRGB">
<feFlood flood-opacity="0" result="BackgroundImageFix"/>
<feBlend mode="normal" in="SourceGraphic" in2="BackgroundImageFix" result="shape"/>
<feGaussianBlur stdDeviation="5" result="effect1_foregroundBlur_2_1409"/>
</filter>
<filter id="filter4_d_2_1409" x="0" y="48" width="390" height="2" filterUnits="userSpaceOnUse" color-interpolation-filters="sRGB">
<feFlood flood-opacity="0" result="BackgroundImageFix"/>
<feColorMatrix in="SourceAlpha" type="matrix" values="0 0 0 0 0 0 0 0 0 0 0 0 0 0 0 0 0 0 127 0" result="hardAlpha"/>
<feOffset dy="1"/>
<feComposite in2="hardAlpha" operator="out"/>
<feColorMatrix type="matrix" values="0 0 0 0 0 0 0 0 0 0 0 0 0 0 0 0 0 0 0.2 0"/>
<feBlend mode="overlay" in2="BackgroundImageFix" result="effect1_dropShadow_2_1409"/>
<feBlend mode="normal" in="SourceGraphic" in2="effect1_dropShadow_2_1409" result="shape"/>
</filter>
<linearGradient id="paint0_linear_2_1409" x1="9.99998" y1="-20.3843" x2="80.5683" y2="363.78" gradientUnits="userSpaceOnUse">
<stop stop-color="#2E335A"/>
<stop offset="1" stop-color="#1C1B33"/>
</linearGradient>
<radialGradient id="paint1_angular_2_1409" cx="0" cy="0" r="1" gradientUnits="userSpaceOnUse" gradientTransform="translate(396 190) rotate(90) scale(125)">
<stop offset="0.138937" stop-color="#612FAB" stop-opacity="0"/>
<stop offset="0.359865" stop-color="#612FAB"/>
<stop offset="0.627936" stop-color="#612FAB" stop-opacity="0"/>
<stop offset="0.868159" stop-color="#612FAB"/>
</radialGradient>
<linearGradient id="paint2_linear_2_1409" x1="499" y1="49.0171" x2="111.5" y2="49.0168" gradientUnits="userSpaceOnUse">
<stop offset="0.563871" stop-color="white" stop-opacity="0"/>
<stop offset="0.781936" stop-color="white"/>
<stop offset="0.967742" stop-color="white" stop-opacity="0"/>
</linearGradient>
<clipPath id="clip0_2_1409">
<rect width="390" height="325" fill="white"/>
</clipPath>
</defs>
</svg>
